<svg xmlns="http://www.w3.org/2000/svg" width="72" height="165" viewBox="0 0 72 165"><g><g><path fill="#21243d" d="M67.586 8.743c-2.44 0-4.418-1.954-4.418-4.368C63.168 1.957 65.146 0 67.586 0c2.44 0 4.418 1.957 4.418 4.375 0 2.414-1.978 4.368-4.418 4.368zm0 31.253c-2.44 0-4.418-1.958-4.418-4.376 0-2.41 1.978-4.367 4.418-4.367 2.44 0 4.418 1.957 4.418 4.367 0 2.418-1.978 4.376-4.418 4.376zm0 31.249c-2.44 0-4.418-1.954-4.418-4.372 0-2.41 1.978-4.367 4.418-4.367 2.44 0 4.418 1.957 4.418 4.367 0 2.418-1.978 4.372-4.418 4.372zm0 31.253c-2.44 0-4.418-1.954-4.418-4.368 0-2.418 1.978-4.375 4.418-4.375 2.44 0 4.418 1.957 4.418 4.375 0 2.414-1.978 4.368-4.418 4.368zm0 31.253c-2.44 0-4.418-1.958-4.418-4.376 0-2.41 1.978-4.363 4.418-4.363 2.44 0 4.418 1.953 4.418 4.363 0 2.418-1.978 4.376-4.418 4.376zm0 31.249c-2.44 0-4.418-1.954-4.418-4.364 0-2.418 1.978-4.375 4.418-4.375 2.44 0 4.418 1.957 4.418 4.375 0 2.41-1.978 4.364-4.418 4.364zM36.001 8.743c-2.436 0-4.418-1.954-4.418-4.368C31.583 1.957 33.565 0 36 0c2.44 0 4.418 1.957 4.418 4.375 0 2.414-1.979 4.368-4.418 4.368zm0 31.253c-2.436 0-4.418-1.958-4.418-4.376 0-2.41 1.982-4.367 4.418-4.367 2.44 0 4.418 1.957 4.418 4.367 0 2.418-1.979 4.376-4.418 4.376zm0 31.249c-2.436 0-4.418-1.954-4.418-4.372 0-2.41 1.982-4.367 4.418-4.367 2.44 0 4.418 1.957 4.418 4.367 0 2.418-1.979 4.372-4.418 4.372zm0 31.253c-2.436 0-4.418-1.954-4.418-4.368 0-2.418 1.982-4.375 4.418-4.375 2.44 0 4.418 1.957 4.418 4.375 0 2.414-1.979 4.368-4.418 4.368zm0 31.253c-2.436 0-4.418-1.958-4.418-4.376 0-2.41 1.982-4.363 4.418-4.363 2.44 0 4.418 1.953 4.418 4.363 0 2.418-1.979 4.376-4.418 4.376zM36 165c-2.436 0-4.418-1.954-4.418-4.364 0-2.418 1.982-4.375 4.418-4.375 2.44 0 4.418 1.957 4.418 4.375 0 2.41-1.979 4.364-4.418 4.364zM4.419 8.743c-2.44 0-4.422-1.954-4.422-4.368C-.003 1.957 1.98 0 4.42 0c2.436 0 4.41 1.957 4.41 4.375 0 2.414-1.974 4.368-4.41 4.368zm0 31.253c-2.44 0-4.422-1.958-4.422-4.376 0-2.41 1.983-4.367 4.422-4.367 2.436 0 4.41 1.957 4.41 4.367 0 2.418-1.974 4.376-4.41 4.376zm0 31.249c-2.44 0-4.422-1.954-4.422-4.372 0-2.41 1.983-4.367 4.422-4.367 2.436 0 4.41 1.957 4.41 4.367 0 2.418-1.974 4.372-4.41 4.372zm0 31.253c-2.44 0-4.422-1.954-4.422-4.368 0-2.418 1.983-4.375 4.422-4.375 2.436 0 4.41 1.957 4.41 4.375 0 2.414-1.974 4.368-4.41 4.368zm0 31.253c-2.44 0-4.422-1.958-4.422-4.376 0-2.41 1.983-4.363 4.422-4.363 2.436 0 4.41 1.953 4.41 4.363 0 2.418-1.974 4.376-4.41 4.376zm0 31.249c-2.44 0-4.422-1.954-4.422-4.364 0-2.418 1.983-4.375 4.422-4.375 2.436 0 4.41 1.957 4.41 4.375 0 2.41-1.974 4.364-4.41 4.364z"/></g></g></svg>